{
	"asset":{
		"generator":"Khronos glTF Blender I/O v5.2.39",
		"version":"2.0"
	},
	"scene":0,
	"scenes":[
		{
			"name":"Scene",
			"nodes":[
				0,
				1
			]
		}
	],
	"nodes":[
		{
			"mesh":0,
			"name":"DeskStand"
		},
		{
			"mesh":1,
			"name":"Smartphone",
			"rotation":[
				-0.13052619993686676,
				0,
				0,
				0.9914448857307434
			],
			"translation":[
				0,
				0.08641286939382553,
				0.0056659807451069355
			]
		}
	],
	"materials":[
		{
			"doubleSided":true,
			"name":"Mat_Stand_Matte",
			"pbrMetallicRoughness":{
				"baseColorFactor":[
					0.05999999865889549,
					0.05999999865889549,
					0.07000000029802322,
					1
				],
				"metallicFactor":0.019999999552965164,
				"roughnessFactor":0.8799999952316284
			}
		},
		{
			"doubleSided":true,
			"name":"Mat_Phone_Body",
			"pbrMetallicRoughness":{
				"baseColorFactor":[
					0.05000000074505806,
					0.05000000074505806,
					0.05999999865889549,
					1
				],
				"metallicFactor":0.9200000166893005,
				"roughnessFactor":0.18000000715255737
			}
		},
		{
			"doubleSided":true,
			"emissiveFactor":[
				0.8500000238418579,
				0.8500000238418579,
				0.8500000238418579
			],
			"emissiveTexture":{
				"index":0
			},
			"name":"Mat_Phone_Screen",
			"pbrMetallicRoughness":{
				"baseColorTexture":{
					"index":1
				},
				"metallicFactor":0,
				"roughnessFactor":0.03999999910593033
			}
		}
	],
	"meshes":[
		{
			"name":"Stand_Mesh",
			"primitives":[
				{
					"attributes":{
						"POSITION":0,
						"NORMAL":1,
						"TEXCOORD_0":2
					},
					"indices":3,
					"material":0
				}
			]
		},
		{
			"name":"Smartphone_Mesh",
			"primitives":[
				{
					"attributes":{
						"POSITION":4,
						"NORMAL":5,
						"TEXCOORD_0":6
					},
					"indices":7,
					"material":1
				},
				{
					"attributes":{
						"POSITION":8,
						"NORMAL":9,
						"TEXCOORD_0":10
					},
					"indices":11,
					"material":2
				}
			]
		}
	],
	"textures":[
		{
			"sampler":0,
			"source":0
		},
		{
			"sampler":0,
			"source":0
		}
	],
	"images":[
		{
			"mimeType":"image/png",
			"name":"sample_screen_texture",
			"uri":"sample_screen_texture.png"
		}
	],
	"accessors":[
		{
			"bufferView":0,
			"componentType":5126,
			"count":552,
			"max":[
				0.04399999976158142,
				0.06499999761581421,
				0.041999999433755875
			],
			"min":[
				-0.04399999976158142,
				0,
				-0.052000001072883606
			],
			"type":"VEC3"
		},
		{
			"bufferView":1,
			"componentType":5126,
			"count":552,
			"type":"VEC3"
		},
		{
			"bufferView":2,
			"componentType":5126,
			"count":552,
			"type":"VEC2"
		},
		{
			"bufferView":3,
			"componentType":5123,
			"count":852,
			"type":"SCALAR"
		},
		{
			"bufferView":4,
			"componentType":5126,
			"count":920,
			"max":[
				0.03750000149011612,
				0.07999999821186066,
				0.004000000189989805
			],
			"min":[
				-0.03750000149011612,
				-0.07999999821186066,
				-0.004000000189989805
			],
			"type":"VEC3"
		},
		{
			"bufferView":5,
			"componentType":5126,
			"count":920,
			"type":"VEC3"
		},
		{
			"bufferView":6,
			"componentType":5126,
			"count":920,
			"type":"VEC2"
		},
		{
			"bufferView":7,
			"componentType":5123,
			"count":2034,
			"type":"SCALAR"
		},
		{
			"bufferView":8,
			"componentType":5126,
			"count":40,
			"max":[
				0.03400000184774399,
				0.07649999856948853,
				0.004000000189989805
			],
			"min":[
				-0.03400000184774399,
				-0.07649999856948853,
				0.004000000189989805
			],
			"type":"VEC3"
		},
		{
			"bufferView":9,
			"componentType":5126,
			"count":40,
			"type":"VEC3"
		},
		{
			"bufferView":10,
			"componentType":5126,
			"count":40,
			"type":"VEC2"
		},
		{
			"bufferView":11,
			"componentType":5123,
			"count":114,
			"type":"SCALAR"
		}
	],
	"bufferViews":[
		{
			"buffer":0,
			"byteLength":6624,
			"byteOffset":0,
			"target":34962
		},
		{
			"buffer":0,
			"byteLength":6624,
			"byteOffset":6624,
			"target":34962
		},
		{
			"buffer":0,
			"byteLength":4416,
			"byteOffset":13248,
			"target":34962
		},
		{
			"buffer":0,
			"byteLength":1704,
			"byteOffset":17664,
			"target":34963
		},
		{
			"buffer":0,
			"byteLength":11040,
			"byteOffset":19368,
			"target":34962
		},
		{
			"buffer":0,
			"byteLength":11040,
			"byteOffset":30408,
			"target":34962
		},
		{
			"buffer":0,
			"byteLength":7360,
			"byteOffset":41448,
			"target":34962
		},
		{
			"buffer":0,
			"byteLength":4068,
			"byteOffset":48808,
			"target":34963
		},
		{
			"buffer":0,
			"byteLength":480,
			"byteOffset":52876,
			"target":34962
		},
		{
			"buffer":0,
			"byteLength":480,
			"byteOffset":53356,
			"target":34962
		},
		{
			"buffer":0,
			"byteLength":320,
			"byteOffset":53836,
			"target":34962
		},
		{
			"buffer":0,
			"byteLength":228,
			"byteOffset":54156,
			"target":34963
		}
	],
	"samplers":[
		{
			"magFilter":9729,
			"minFilter":9987
		}
	],
	"buffers":[
		{
			"byteLength":54384,
			"uri":"phone_desk_stand.bin"
		}
	]
}
