# Blender 5.2.0 LTS
# www.blender.org
mtllib phone_desk_stand.mtl
o Smartphone
v 0.029500 0.013555 0.029329
v 0.030204 0.013608 0.029315
v 0.030891 0.013768 0.029272
v 0.031543 0.014029 0.029202
v 0.032145 0.014385 0.029107
v 0.032682 0.014828 0.028988
v 0.033141 0.015347 0.028849
v 0.033510 0.015928 0.028693
v 0.033780 0.016558 0.028525
v 0.033945 0.017222 0.028347
v 0.034000 0.156995 -0.009105
v 0.033945 0.157675 -0.009287
v 0.033780 0.158338 -0.009465
v 0.033510 0.158968 -0.009634
v 0.033141 0.159550 -0.009790
v 0.032682 0.160068 -0.009929
v 0.032145 0.160511 -0.010048
v 0.031543 0.160868 -0.010143
v 0.030891 0.161129 -0.010213
v 0.030204 0.161288 -0.010256
v -0.029500 0.161341 -0.010270
v -0.030204 0.161288 -0.010256
v -0.030891 0.161129 -0.010213
v -0.031543 0.160868 -0.010143
v -0.032145 0.160511 -0.010048
v -0.032682 0.160068 -0.009929
v -0.033141 0.159550 -0.009790
v -0.033510 0.158968 -0.009634
v -0.033780 0.158338 -0.009465
v -0.033945 0.157675 -0.009287
v -0.034000 0.017901 0.028165
v -0.033945 0.017222 0.028347
v -0.033780 0.016558 0.028525
v -0.033510 0.015928 0.028693
v -0.033141 0.015347 0.028849
v -0.032682 0.014828 0.028988
v -0.032145 0.014385 0.029107
v -0.031543 0.014029 0.029202
v -0.030891 0.013768 0.029272
v -0.030204 0.013608 0.029315
v 0.029500 0.010945 0.030029
v 0.029500 0.009967 0.029462
v 0.029500 0.010532 0.030028
v 0.029500 0.010174 0.029821
v 0.029469 0.008876 0.022301
v 0.029500 0.008311 0.023281
v 0.029485 0.008518 0.022508
v 0.029496 0.008311 0.022866
v 0.030751 0.010062 0.029437
v 0.030626 0.011032 0.030005
v 0.030735 0.010268 0.029796
v 0.030689 0.010623 0.030004
v 0.030626 0.008964 0.022277
v 0.030751 0.008406 0.023255
v 0.030689 0.008609 0.022483
v 0.030735 0.008405 0.022841
v 0.031972 0.010345 0.029361
v 0.031725 0.011288 0.029937
v 0.031939 0.010547 0.029721
v 0.031848 0.010892 0.029932
v 0.031724 0.009219 0.022209
v 0.031972 0.008689 0.023179
v 0.031848 0.008878 0.022411
v 0.031939 0.008684 0.022766
v 0.033132 0.010809 0.029237
v 0.032768 0.011706 0.029825
v 0.033083 0.011005 0.029598
v 0.032950 0.011334 0.029814
v 0.032768 0.009636 0.022097
v 0.033132 0.009153 0.023055
v 0.032950 0.009319 0.022293
v 0.033083 0.009142 0.022644
v 0.034202 0.011443 0.029067
v 0.033731 0.012277 0.029672
v 0.034139 0.011630 0.029431
v 0.033966 0.011936 0.029652
v 0.033731 0.010206 0.021944
v 0.034202 0.009786 0.022885
v 0.033966 0.009921 0.022132
v 0.034139 0.009767 0.022476
v 0.035157 0.012230 0.028856
v 0.034589 0.012986 0.029482
v 0.035081 0.012407 0.029223
v 0.034873 0.012684 0.029452
v 0.034589 0.010915 0.021754
v 0.035157 0.010574 0.022674
v 0.034873 0.010669 0.021931
v 0.035081 0.010544 0.022268
v 0.035972 0.013152 0.028609
v 0.035322 0.013816 0.029259
v 0.035885 0.013317 0.028979
v 0.035647 0.013560 0.029217
v 0.035323 0.011744 0.021532
v 0.035972 0.011496 0.022427
v 0.035648 0.011544 0.021697
v 0.035885 0.011453 0.022024
v 0.036628 0.014186 0.028332
v 0.035911 0.014746 0.029010
v 0.036532 0.014337 0.028706
v 0.036270 0.014542 0.028954
v 0.035913 0.012675 0.021283
v 0.036628 0.012530 0.022150
v 0.036271 0.012526 0.021434
v 0.036532 0.012473 0.021751
v 0.037108 0.015307 0.028032
v 0.036342 0.015754 0.028740
v 0.037006 0.015442 0.028409
v 0.036725 0.015606 0.028669
v 0.036345 0.013683 0.021013
v 0.037108 0.013650 0.021850
v 0.036727 0.013591 0.021149
v 0.037006 0.013579 0.021455
v 0.037402 0.016486 0.027716
v 0.036604 0.016815 0.028456
v 0.037295 0.016605 0.028098
v 0.037003 0.016726 0.028369
v 0.036602 0.014714 0.020737
v 0.037402 0.014829 0.021534
v 0.037002 0.014696 0.020852
v 0.037294 0.014738 0.021144
v 0.037500 0.156788 -0.009878
v 0.036701 0.156995 -0.009105
v 0.037393 0.156891 -0.009492
v 0.037101 0.156967 -0.009209
v 0.036700 0.154894 -0.016825
v 0.037500 0.155131 -0.016060
v 0.037100 0.154937 -0.016725
v 0.037393 0.155024 -0.016445
v 0.037402 0.157997 -0.010202
v 0.036612 0.158083 -0.009397
v 0.037296 0.158084 -0.009811
v 0.037007 0.158115 -0.009517
v 0.036609 0.156012 -0.017124
v 0.037402 0.156340 -0.016384
v 0.037005 0.156100 -0.017037
v 0.037295 0.156220 -0.016766
v 0.037108 0.159176 -0.010518
v 0.036347 0.159144 -0.009681
v 0.037006 0.159247 -0.010123
v 0.036728 0.159235 -0.009817
v 0.036345 0.157073 -0.017408
v 0.037108 0.157519 -0.016700
v 0.036727 0.157220 -0.017337
v 0.037006 0.157384 -0.017078
v 0.036628 0.160296 -0.010818
v 0.035914 0.160151 -0.009951
v 0.036532 0.160352 -0.010419
v 0.036271 0.160299 -0.010102
v 0.035913 0.158081 -0.017678
v 0.036628 0.158639 -0.017000
v 0.036271 0.158284 -0.017622
v 0.036532 0.158489 -0.017374
v 0.035972 0.161330 -0.011095
v 0.035323 0.161081 -0.010200
v 0.035885 0.161372 -0.010692
v 0.035648 0.161281 -0.010365
v 0.035323 0.159011 -0.017928
v 0.035972 0.159673 -0.017277
v 0.035648 0.159266 -0.017885
v 0.035885 0.159509 -0.017647
v 0.035157 0.162252 -0.011342
v 0.034589 0.161910 -0.010422
v 0.035081 0.162282 -0.010936
v 0.034873 0.162157 -0.010599
v 0.034589 0.159840 -0.018150
v 0.035157 0.160595 -0.017524
v 0.034873 0.160142 -0.018120
v 0.035081 0.160418 -0.017891
v 0.034202 0.163039 -0.011553
v 0.033730 0.162618 -0.010612
v 0.034139 0.163059 -0.011144
v 0.033966 0.162905 -0.010800
v 0.033731 0.160549 -0.018340
v 0.034202 0.161383 -0.017735
v 0.033966 0.160890 -0.018320
v 0.034139 0.161195 -0.018099
v 0.033132 0.163673 -0.011723
v 0.032767 0.163187 -0.010765
v 0.033083 0.163684 -0.011312
v 0.032949 0.163506 -0.010961
v 0.032768 0.161119 -0.018493
v 0.033132 0.162016 -0.017905
v 0.032950 0.161492 -0.018482
v 0.033083 0.161820 -0.018266
v 0.031972 0.164137 -0.011847
v 0.031723 0.163604 -0.010876
v 0.031939 0.164141 -0.011434
v 0.031848 0.163946 -0.011079
v 0.031724 0.161536 -0.018604
v 0.031972 0.162481 -0.018029
v 0.031848 0.161933 -0.018600
v 0.031939 0.162278 -0.018389
v 0.030751 0.164420 -0.011923
v 0.030625 0.163857 -0.010944
v 0.030735 0.164420 -0.011509
v 0.030688 0.164214 -0.011151
v 0.030656 0.161784 -0.018671
v 0.030751 0.162764 -0.018105
v 0.030704 0.162198 -0.018671
v 0.030739 0.162557 -0.018464
v -0.029500 0.164515 -0.011949
v -0.029500 0.163951 -0.010969
v -0.029500 0.164515 -0.011535
v -0.029500 0.164309 -0.011176
v -0.029469 0.161879 -0.018696
v -0.029500 0.162859 -0.018131
v -0.029485 0.162293 -0.018696
v -0.029496 0.162652 -0.018489
v -0.030751 0.164420 -0.011923
v -0.030626 0.163864 -0.010946
v -0.030735 0.164421 -0.011509
v -0.030689 0.164218 -0.011152
v -0.030626 0.161791 -0.018673
v -0.030751 0.162764 -0.018105
v -0.030689 0.162201 -0.018672
v -0.030735 0.162557 -0.018464
v -0.031972 0.164137 -0.011847
v -0.031725 0.163608 -0.010877
v -0.031939 0.164142 -0.011434
v -0.031848 0.163948 -0.011079
v -0.031724 0.161536 -0.018604
v -0.031972 0.162481 -0.018029
v -0.031848 0.161933 -0.018600
v -0.031939 0.162278 -0.018389
v -0.033132 0.163673 -0.011723
v -0.032768 0.163190 -0.010765
v -0.033083 0.163684 -0.011312
v -0.032950 0.163507 -0.010961
v -0.032768 0.161119 -0.018493
v -0.033132 0.162016 -0.017905
v -0.032950 0.161492 -0.018482
v -0.033083 0.161820 -0.018266
v -0.034202 0.163039 -0.011553
v -0.033731 0.162619 -0.010612
v -0.034139 0.163059 -0.011144
v -0.033966 0.162905 -0.010800
v -0.033731 0.160549 -0.018340
v -0.034202 0.161383 -0.017735
v -0.033966 0.160890 -0.018320
v -0.034139 0.161195 -0.018099
v -0.035157 0.162252 -0.011342
v -0.034589 0.161910 -0.010422
v -0.035081 0.162282 -0.010936
v -0.034873 0.162157 -0.010599
v -0.034589 0.159840 -0.018150
v -0.035157 0.160595 -0.017524
v -0.034873 0.160142 -0.018120
v -0.035081 0.160418 -0.017891
v -0.035972 0.161330 -0.011095
v -0.035322 0.161081 -0.010200
v -0.035885 0.161372 -0.010692
v -0.035647 0.161281 -0.010365
v -0.035323 0.159011 -0.017928
v -0.035972 0.159673 -0.017277
v -0.035648 0.159266 -0.017885
v -0.035885 0.159509 -0.017647
v -0.036628 0.160296 -0.010818
v -0.035911 0.160150 -0.009951
v -0.036532 0.160352 -0.010419
v -0.036270 0.160299 -0.010102
v -0.035913 0.158081 -0.017678
v -0.036628 0.158639 -0.017000
v -0.036271 0.158284 -0.017622
v -0.036532 0.158489 -0.017374
v -0.037108 0.159176 -0.010518
v -0.036342 0.159142 -0.009681
v -0.037006 0.159247 -0.010123
v -0.036725 0.159235 -0.009816
v -0.036345 0.157073 -0.017408
v -0.037108 0.157519 -0.016700
v -0.036727 0.157220 -0.017337
v -0.037006 0.157384 -0.017078
v -0.037402 0.157997 -0.010202
v -0.036604 0.158082 -0.009397
v -0.037295 0.158084 -0.009811
v -0.037003 0.158115 -0.009516
v -0.036602 0.156041 -0.017132
v -0.037402 0.156340 -0.016384
v -0.037002 0.156115 -0.017041
v -0.037294 0.156224 -0.016767
v -0.037500 0.017694 0.027392
v -0.036701 0.017901 0.028165
v -0.037393 0.017798 0.027778
v -0.037101 0.017874 0.028061
v -0.036700 0.015861 0.020429
v -0.037500 0.016038 0.021210
v -0.037100 0.015874 0.020537
v -0.037393 0.015938 0.020823
v -0.037402 0.016486 0.027716
v -0.036612 0.016813 0.028456
v -0.037296 0.016605 0.028098
v -0.037007 0.016725 0.028369
v -0.036609 0.014743 0.020729
v -0.037402 0.014829 0.021534
v -0.037005 0.014710 0.020848
v -0.037295 0.014742 0.021143
v -0.037108 0.015307 0.028032
v -0.036347 0.015753 0.028740
v -0.037006 0.015442 0.028410
v -0.036728 0.015605 0.028669
v -0.036345 0.013683 0.021013
v -0.037108 0.013650 0.021850
v -0.036727 0.013591 0.021149
v -0.037006 0.013579 0.021455
v -0.036628 0.014186 0.028332
v -0.035914 0.014745 0.029010
v -0.036532 0.014337 0.028706
v -0.036271 0.014541 0.028954
v -0.035913 0.012675 0.021283
v -0.036628 0.012530 0.022150
v -0.036271 0.012526 0.021434
v -0.036532 0.012473 0.021751
v -0.035972 0.013152 0.028609
v -0.035323 0.013815 0.029260
v -0.035885 0.013317 0.028979
v -0.035648 0.013559 0.029217
v -0.035323 0.011744 0.021532
v -0.035972 0.011496 0.022427
v -0.035648 0.011544 0.021697
v -0.035885 0.011453 0.022024
v -0.035157 0.012230 0.028856
v -0.034589 0.012986 0.029482
v -0.035081 0.012407 0.029223
v -0.034873 0.012684 0.029452
v -0.034589 0.010915 0.021754
v -0.035157 0.010574 0.022674
v -0.034873 0.010669 0.021931
v -0.035081 0.010544 0.022268
v -0.034202 0.011443 0.029067
v -0.033730 0.012278 0.029671
v -0.034139 0.011631 0.029431
v -0.033966 0.011936 0.029652
v -0.033731 0.010206 0.021944
v -0.034202 0.009786 0.022885
v -0.033966 0.009921 0.022132
v -0.034139 0.009767 0.022476
v -0.033132 0.010809 0.029237
v -0.032767 0.011709 0.029824
v -0.033083 0.011006 0.029598
v -0.032949 0.011335 0.029813
v -0.032768 0.009636 0.022097
v -0.033132 0.009153 0.023055
v -0.032950 0.009319 0.022293
v -0.033083 0.009142 0.022644
v -0.031972 0.010345 0.029361
v -0.031723 0.011292 0.029936
v -0.031939 0.010548 0.029721
v -0.031848 0.010895 0.029931
v -0.031724 0.009219 0.022209
v -0.031972 0.008689 0.023179
v -0.031848 0.008878 0.022411
v -0.031939 0.008684 0.022766
v -0.030751 0.010062 0.029437
v -0.030625 0.011039 0.030003
v -0.030735 0.010269 0.029796
v -0.030688 0.010626 0.030003
v -0.030656 0.008971 0.022275
v -0.030751 0.008406 0.023255
v -0.030704 0.008613 0.022482
v -0.030739 0.008406 0.022841
vn -0.0000 0.2588 0.9659
vn 0.0206 -0.0002 0.9998
vn 0.0558 -0.4996 0.8644
vn 0.1512 -0.8546 0.4968
vn 0.0374 -0.8656 0.4993
vn 0.0380 -0.9235 0.3818
vn 0.1551 -0.9124 0.3787
vn 0.0203 -0.4992 -0.8662
vn 0.0555 -0.8639 -0.5006
vn 0.0371 -0.9993 -0.0004
vn 0.1511 -0.9885 -0.0038
vn 0.1551 -0.9796 0.1278
vn 0.0381 -0.9907 0.1307
vn 0.0607 0.0063 0.9981
vn 0.1655 -0.4823 0.8603
vn 0.2985 -0.8202 0.4879
vn 0.3064 -0.8773 0.3694
vn 0.0604 -0.4931 -0.8679
vn 0.1651 -0.8472 -0.5051
vn 0.2984 -0.9543 -0.0130
vn 0.3064 -0.9445 0.1184
vn 0.0993 0.0187 0.9949
vn 0.2710 -0.4486 0.8517
vn 0.4385 -0.7641 0.4732
vn 0.4502 -0.8197 0.3541
vn 0.0990 -0.4810 -0.8711
vn 0.2706 -0.8140 -0.5139
vn 0.4384 -0.8983 -0.0280
vn 0.4501 -0.8870 0.1030
vn 0.1354 0.0368 0.9901
vn 0.3697 -0.3995 0.8389
vn 0.5677 -0.6875 0.4529
vn 0.5828 -0.7412 0.3332
vn 0.1352 -0.4632 -0.8759
vn 0.3695 -0.7654 -0.5270
vn 0.5676 -0.8218 -0.0485
vn 0.5828 -0.8085 0.0820
vn 0.1681 0.0600 0.9839
vn 0.4593 -0.3362 0.8222
vn 0.6829 -0.5923 0.4276
vn 0.7011 -0.6435 0.3072
vn 0.1681 -0.4401 -0.8821
vn 0.4592 -0.7024 -0.5438
vn 0.6829 -0.7268 -0.0740
vn 0.7011 -0.7109 0.0558
vn 0.1967 0.0879 0.9765
vn 0.5375 -0.2601 0.8022
vn 0.7812 -0.4809 0.3980
vn 0.8021 -0.5292 0.2767
vn 0.1968 -0.4124 -0.8895
vn 0.5377 -0.6266 -0.5642
vn 0.7813 -0.6155 -0.1038
vn 0.8021 -0.5966 0.0252
vn 0.2203 0.1198 0.9680
vn 0.6023 -0.1731 0.7792
vn 0.8603 -0.3560 0.3648
vn 0.8834 -0.4010 0.2425
vn 0.2207 -0.3806 -0.8980
vn 0.6029 -0.5399 -0.5874
vn 0.8605 -0.4907 -0.1372
vn 0.8834 -0.4685 -0.0091
vn 0.2384 0.1548 0.9587
vn 0.6522 -0.0774 0.7540
vn 0.9182 -0.2207 0.3289
vn 0.9429 -0.2621 0.2054
vn 0.2391 -0.3457 -0.9074
vn 0.6533 -0.4444 -0.6130
vn 0.9185 -0.3554 -0.1735
vn 0.9430 -0.3296 -0.0463
vn 0.2506 0.1922 0.9488
vn 0.6860 0.0246 0.7272
vn 0.9588 -0.0417 0.2811
vn 0.9845 -0.0795 0.1562
vn 0.2517 -0.3084 -0.9174
vn 0.6876 -0.3425 -0.6403
vn 0.9587 -0.1773 -0.2221
vn 0.9846 -0.1466 -0.0954
vn 0.2595 0.2498 0.9329
vn 0.7081 0.1823 0.6822
vn 0.9654 0.1034 0.2396
vn 0.9908 0.0708 0.1154
vn 0.2588 -0.2502 -0.9330
vn 0.7071 -0.1835 -0.6829
vn 0.9651 -0.0307 -0.2599
vn 0.9907 0.0036 -0.1357
vn 0.2590 0.2698 0.9274
vn 0.7064 0.2365 0.6671
vn 0.9541 0.2130 0.2108
vn 0.9793 0.1834 0.0851
vn 0.2580 -0.2304 -0.9383
vn 0.7049 -0.1294 -0.6974
vn 0.9538 0.0787 -0.2898
vn 0.9793 0.1162 -0.1658
vn 0.2523 0.3086 0.9171
vn 0.6885 0.3426 0.6392
vn 0.9186 0.3554 0.1729
vn 0.9430 0.3296 0.0461
vn 0.2517 -0.1916 -0.9487
vn 0.6876 -0.0236 -0.7257
vn 0.9185 0.2211 -0.3280
vn 0.9430 0.2623 -0.2049
vn 0.2394 0.3459 0.9072
vn 0.6538 0.4446 0.6123
vn 0.8605 0.4907 0.1369
vn 0.8834 0.4684 0.0090
vn 0.2391 -0.1543 -0.9586
vn 0.6533 0.0784 -0.7530
vn 0.8605 0.3563 -0.3642
vn 0.8834 0.4011 -0.2421
vn 0.2208 0.3808 0.8979
vn 0.6031 0.5401 0.5871
vn 0.7813 0.6155 0.1037
vn 0.8021 0.5966 -0.0252
vn 0.2207 -0.1194 -0.9680
vn 0.6029 0.1739 -0.7786
vn 0.7813 0.4811 -0.3976
vn 0.8021 0.5293 -0.2765
vn 0.1967 0.4124 0.8895
vn 0.5376 0.6267 0.5642
vn 0.6828 0.7268 0.0741
vn 0.7011 0.7109 -0.0557
vn 0.1968 -0.0876 -0.9765
vn 0.5377 0.2606 -0.8019
vn 0.6829 0.5924 -0.4275
vn 0.7011 0.6435 -0.3071
vn 0.1678 0.4400 0.8822
vn 0.4589 0.7023 0.5443
vn 0.5675 0.8219 0.0489
vn 0.5828 0.8085 -0.0818
vn 0.1681 -0.0599 -0.9840
vn 0.4592 0.3364 -0.8222
vn 0.5676 0.6875 -0.4529
vn 0.5828 0.7411 -0.3332
vn 0.1348 0.4628 0.8761
vn 0.3689 0.7650 0.5278
vn 0.4383 0.8984 0.0287
vn 0.4501 0.8871 -0.1027
vn 0.1352 -0.0368 -0.9901
vn 0.3695 0.3994 -0.8391
vn 0.4384 0.7640 -0.4734
vn 0.4501 0.8197 -0.3543
vn 0.0986 0.4804 0.8715
vn 0.2700 0.8134 0.5153
vn 0.2983 0.9544 0.0140
vn 0.3063 0.9446 -0.1179
vn 0.0990 -0.0190 -0.9949
vn 0.2706 0.4480 -0.8521
vn 0.2984 0.8200 -0.4884
vn 0.3064 0.8772 -0.3697
vn 0.0599 0.4921 0.8685
vn 0.1645 0.8461 0.5071
vn 0.1135 0.9935 0.0037
vn 0.1177 0.9846 -0.1290
vn 0.0604 -0.0069 -0.9981
vn 0.1651 0.4811 -0.8610
vn 0.1143 0.8586 -0.4997
vn 0.1173 0.9173 -0.3805
vn 0.0004 0.5006 0.8657
vn 0.0012 0.8667 0.4989
vn -0.0374 0.9993 -0.0005
vn -0.0380 0.9906 -0.1311
vn 0.0004 -0.0000 -1.0000
vn 0.0012 0.5000 -0.8660
vn -0.0371 0.8652 -0.5000
vn -0.0381 0.9233 -0.3822
vn -0.0206 0.5001 0.8657
vn -0.0558 0.8649 0.4988
vn -0.1512 0.9885 0.0030
vn -0.1551 0.9795 -0.1282
vn -0.0203 -0.0008 -0.9998
vn -0.0555 0.4979 -0.8655
vn -0.1511 0.8542 -0.4976
vn -0.1551 0.9123 -0.3791
vn -0.0607 0.4936 0.8675
vn -0.1655 0.8478 0.5039
vn -0.2985 0.9543 0.0125
vn -0.3064 0.9445 -0.1187
vn -0.0604 -0.0069 -0.9981
vn -0.1651 0.4811 -0.8610
vn -0.2984 0.8200 -0.4884
vn -0.3064 0.8772 -0.3697
vn -0.0993 0.4813 0.8709
vn -0.2710 0.8144 0.5132
vn -0.4385 0.8983 0.0277
vn -0.4502 0.8870 -0.1032
vn -0.0990 -0.0190 -0.9949
vn -0.2706 0.4480 -0.8521
vn -0.4384 0.7640 -0.4734
vn -0.4501 0.8197 -0.3543
vn -0.1354 0.4632 0.8758
vn -0.3697 0.7654 0.5267
vn -0.5677 0.8218 0.0484
vn -0.5828 0.8085 -0.0820
vn -0.1352 -0.0368 -0.9901
vn -0.3695 0.3994 -0.8391
vn -0.5676 0.6875 -0.4529
vn -0.5828 0.7411 -0.3332
vn -0.1681 0.4400 0.8821
vn -0.4593 0.7023 0.5440
vn -0.6829 0.7268 0.0742
vn -0.7011 0.7109 -0.0557
vn -0.1681 -0.0599 -0.9840
vn -0.4592 0.3364 -0.8222
vn -0.6829 0.5924 -0.4275
vn -0.7011 0.6435 -0.3071
vn -0.1967 0.4121 0.8897
vn -0.5375 0.6263 0.5646
vn -0.7812 0.6155 0.1042
vn -0.8021 0.5966 -0.0250
vn -0.1968 -0.0876 -0.9765
vn -0.5377 0.2606 -0.8019
vn -0.7813 0.4811 -0.3976
vn -0.8021 0.5293 -0.2765
vn -0.2203 0.3803 0.8983
vn -0.6023 0.5396 0.5883
vn -0.8603 0.4907 0.1379
vn -0.8834 0.4685 0.0095
vn -0.2207 -0.1194 -0.9680
vn -0.6029 0.1739 -0.7786
vn -0.8605 0.3563 -0.3642
vn -0.8834 0.4011 -0.2421
vn -0.2384 0.3453 0.9077
vn -0.6522 0.4441 0.6143
vn -0.9182 0.3556 0.1745
vn -0.9429 0.3297 0.0468
vn -0.2391 -0.1543 -0.9586
vn -0.6533 0.0784 -0.7530
vn -0.9185 0.2211 -0.3280
vn -0.9430 0.2623 -0.2049
vn -0.2506 0.3080 0.9178
vn -0.6860 0.3423 0.6421
vn -0.9588 0.1767 0.2226
vn -0.9845 0.1469 0.0955
vn -0.2517 -0.1916 -0.9487
vn -0.6876 -0.0236 -0.7257
vn -0.9587 0.0425 -0.2811
vn -0.9846 0.0792 -0.1559
vn -0.2595 0.2501 0.9328
vn -0.7081 0.1832 0.6820
vn -0.9654 0.0302 0.2592
vn -0.9908 -0.0036 0.1353
vn -0.2588 -0.2498 -0.9331
vn -0.7071 -0.1825 -0.6831
vn -0.9651 -0.1033 -0.2405
vn -0.9907 -0.0710 -0.1158
vn -0.2590 0.2300 0.9381
vn -0.7064 0.1287 0.6960
vn -0.9541 -0.0791 0.2890
vn -0.9793 -0.1163 0.1654
vn -0.2580 -0.2696 -0.9278
vn -0.7049 -0.2366 -0.6687
vn -0.9538 -0.2131 -0.2116
vn -0.9793 -0.1835 -0.0855
vn -0.2523 0.1913 0.9486
vn -0.6885 0.0229 0.7249
vn -0.9186 -0.2213 0.3274
vn -0.9430 -0.2624 0.2047
vn -0.2517 -0.3084 -0.9174
vn -0.6876 -0.3425 -0.6403
vn -0.9185 -0.3554 -0.1735
vn -0.9430 -0.3296 -0.0463
vn -0.2394 0.1540 0.9586
vn -0.6538 -0.0789 0.7526
vn -0.8605 -0.3565 0.3639
vn -0.8834 -0.4012 0.2420
vn -0.2391 -0.3457 -0.9074
vn -0.6533 -0.4444 -0.6130
vn -0.8605 -0.4907 -0.1372
vn -0.8834 -0.4685 -0.0091
vn -0.2208 0.1192 0.9680
vn -0.6031 -0.1742 0.7784
vn -0.7813 -0.4812 0.3976
vn -0.8021 -0.5293 0.2765
vn -0.2207 -0.3806 -0.8980
vn -0.6029 -0.5399 -0.5874
vn -0.7813 -0.6155 -0.1038
vn -0.8021 -0.5966 0.0252
vn -0.1967 0.0876 0.9765
vn -0.5376 -0.2606 0.8019
vn -0.6828 -0.5924 0.4276
vn -0.7011 -0.6435 0.3072
vn -0.1968 -0.4124 -0.8895
vn -0.5377 -0.6266 -0.5642
vn -0.6829 -0.7268 -0.0740
vn -0.7011 -0.7109 0.0558
vn -0.1678 0.0600 0.9840
vn -0.4589 -0.3361 0.8225
vn -0.5675 -0.6873 0.4533
vn -0.5828 -0.7411 0.3334
vn -0.1681 -0.4401 -0.8821
vn -0.4592 -0.7024 -0.5438
vn -0.5676 -0.8218 -0.0485
vn -0.5828 -0.8085 0.0820
vn -0.1348 0.0372 0.9902
vn -0.3689 -0.3986 0.8396
vn -0.4383 -0.7637 0.4740
vn -0.4501 -0.8196 0.3546
vn -0.1352 -0.4632 -0.8759
vn -0.3695 -0.7654 -0.5270
vn -0.4384 -0.8983 -0.0280
vn -0.4501 -0.8870 0.1030
vn -0.0986 0.0197 0.9949
vn -0.2700 -0.4467 0.8530
vn -0.2983 -0.8195 0.4893
vn -0.3063 -0.8770 0.3702
vn -0.0990 -0.4810 -0.8711
vn -0.2706 -0.8140 -0.5139
vn -0.2984 -0.9543 -0.0130
vn -0.3064 -0.9445 0.1184
vn -0.0599 0.0080 0.9982
vn -0.1645 -0.4792 0.8622
vn -0.1135 -0.8586 0.5000
vn -0.1177 -0.9172 0.3806
vn -0.0604 -0.4931 -0.8679
vn -0.1651 -0.8472 -0.5051
vn -0.1143 -0.9934 -0.0035
vn -0.1173 -0.9847 0.1291
vn -0.0004 -0.0007 1.0000
vn -0.0012 -0.5011 0.8654
vn -0.0004 -0.5000 -0.8660
vn -0.0012 -0.8660 -0.5000
vn -0.0000 -0.2588 -0.9659
vt 0.933824 0.000000
vt 0.944176 0.000362
vt 0.954273 0.001440
vt 0.963867 0.003206
vt 0.972721 0.005617
vt 0.980617 0.008614
vt 0.987361 0.012124
vt 0.992787 0.016059
vt 0.996761 0.020323
vt 0.999185 0.024811
vt 1.000000 0.970588
vt 0.999185 0.975189
vt 0.996761 0.979677
vt 0.992787 0.983941
vt 0.987361 0.987876
vt 0.980617 0.991386
vt 0.972721 0.994383
vt 0.963867 0.996794
vt 0.954273 0.998560
vt 0.944176 0.999638
vt 0.066176 1.000000
vt 0.055824 0.999638
vt 0.045727 0.998560
vt 0.036133 0.996794
vt 0.027279 0.994383
vt 0.019383 0.991386
vt 0.012639 0.987876
vt 0.007213 0.983941
vt 0.003239 0.979677
vt 0.000815 0.975189
vt -0.000000 0.029412
vt 0.000815 0.024811
vt 0.003239 0.020323
vt 0.007213 0.016059
vt 0.012639 0.012124
vt 0.019383 0.008614
vt 0.027279 0.005617
vt 0.036133 0.003206
vt 0.045727 0.001440
vt 0.055824 0.000362
vt 0.908351 0.005553
vt 0.893333 0.004991
vt 0.893333 0.002496
vt 0.909186 0.003084
vt 0.893388 0.000002
vt 0.910018 0.000620
vt 0.893333 0.000000
vt 0.910020 0.000616
vt 0.892923 0.005000
vt 0.908346 0.005569
vt 0.909183 0.003092
vt 0.893128 0.002500
vt 0.910018 0.000620
vt 0.893333 0.000001
vt 0.922996 0.007207
vt 0.924646 0.004827
vt 0.926292 0.002451
vt 0.926295 0.002447
vt 0.922988 0.007217
vt 0.924642 0.004832
vt 0.926292 0.002451
vt 0.926295 0.002447
vt 0.936907 0.009913
vt 0.939333 0.007682
vt 0.941755 0.005453
vt 0.941759 0.005450
vt 0.936902 0.009919
vt 0.939330 0.007684
vt 0.941755 0.005453
vt 0.949743 0.013606
vt 0.952887 0.011577
vt 0.956025 0.009552
vt 0.956030 0.009549
vt 0.949741 0.013607
vt 0.952886 0.011578
vt 0.956025 0.009552
vt 0.961187 0.018193
vt 0.964973 0.016419
vt 0.968752 0.014648
vt 0.968758 0.014645
vt 0.961192 0.018191
vt 0.964975 0.016418
vt 0.968752 0.014648
vt 0.968758 0.014645
vt 0.970958 0.023564
vt 0.975293 0.022087
vt 0.979621 0.020613
vt 0.979629 0.020611
vt 0.970972 0.023559
vt 0.975300 0.022085
vt 0.979621 0.020613
vt 0.978815 0.029584
vt 0.983594 0.028442
vt 0.988366 0.027302
vt 0.988374 0.027300
vt 0.978841 0.029577
vt 0.983607 0.028439
vt 0.988366 0.027302
vt 0.988374 0.027300
vt 0.984562 0.036105
vt 0.989671 0.035327
vt 0.994771 0.034550
vt 0.994779 0.034549
vt 0.984604 0.036099
vt 0.989691 0.035324
vt 0.994771 0.034550
vt 0.988059 0.042967
vt 0.993373 0.042573
vt 0.998674 0.042205
vt 0.998687 0.042178
vt 0.988021 0.042772
vt 0.993354 0.042475
vt 0.998667 0.042179
vt 0.989353 0.950000
vt 0.994676 0.950000
vt 0.999996 0.950026
vt 1.000000 0.950000
vt 0.989333 0.949805
vt 0.994667 0.949903
vt 0.999998 0.950000
vt 0.988155 0.957040
vt 0.993421 0.957431
vt 0.998678 0.957821
vt 0.998687 0.957822
vt 0.988119 0.957037
vt 0.993403 0.957429
vt 0.998678 0.957821
vt 0.984626 0.963904
vt 0.989703 0.964678
vt 0.994771 0.965450
vt 0.994779 0.965451
vt 0.984603 0.963901
vt 0.989691 0.964676
vt 0.978852 0.970425
vt 0.983613 0.971562
vt 0.988366 0.972698
vt 0.988374 0.972700
vt 0.978841 0.970423
vt 0.983607 0.971561
vt 0.988366 0.972698
vt 0.970975 0.976442
vt 0.975302 0.977916
vt 0.979621 0.979387
vt 0.979629 0.979389
vt 0.970972 0.976441
vt 0.975300 0.977915
vt 0.961187 0.981807
vt 0.964973 0.983581
vt 0.968752 0.985352
vt 0.968758 0.985355
vt 0.961192 0.981809
vt 0.964975 0.983582
vt 0.968752 0.985352
vt 0.949731 0.986387
vt 0.952881 0.988419
vt 0.956025 0.990448
vt 0.956030 0.990451
vt 0.949742 0.986393
vt 0.952886 0.988422
vt 0.936888 0.990070
vt 0.939324 0.992310
vt 0.941755 0.994547
vt 0.941759 0.994550
vt 0.936901 0.990081
vt 0.939330 0.992316
vt 0.941755 0.994547
vt 0.922976 0.992764
vt 0.924635 0.995158
vt 0.926292 0.997549
vt 0.926295 0.997553
vt 0.922989 0.992783
vt 0.924642 0.995168
vt 0.926292 0.997549
vt 0.926295 0.997553
vt 0.908337 0.994403
vt 0.909178 0.996894
vt 0.909963 0.999378
vt 0.910020 0.999384
vt 0.908749 0.994385
vt 0.909384 0.996885
vt 0.910017 0.999375
vt 0.106667 0.995009
vt 0.106667 0.997504
vt 0.106612 0.999998
vt 0.106667 1.000000
vt 0.107077 0.995000
vt 0.106872 0.997500
vt 0.106667 0.999999
vt 0.091648 0.994447
vt 0.090814 0.996916
vt 0.089982 0.999380
vt 0.089980 0.999384
vt 0.091654 0.994430
vt 0.090817 0.996908
vt 0.089982 0.999380
vt 0.089980 0.999384
vt 0.077004 0.992793
vt 0.075354 0.995173
vt 0.073708 0.997549
vt 0.073705 0.997553
vt 0.077012 0.992783
vt 0.075358 0.995168
vt 0.073708 0.997549
vt 0.063093 0.990087
vt 0.060667 0.992318
vt 0.058245 0.994547
vt 0.058241 0.994550
vt 0.063098 0.990081
vt 0.060670 0.992316
vt 0.058245 0.994547
vt 0.050257 0.986394
vt 0.047113 0.988423
vt 0.043975 0.990447
vt 0.043970 0.990451
vt 0.050259 0.986393
vt 0.047114 0.988422
vt 0.043975 0.990447
vt 0.043970 0.990451
vt 0.038813 0.981807
vt 0.035027 0.983581
vt 0.031248 0.985352
vt 0.031242 0.985355
vt 0.038808 0.981809
vt 0.035025 0.983582
vt 0.031248 0.985352
vt 0.029042 0.976436
vt 0.024707 0.977913
vt 0.020379 0.979387
vt 0.020372 0.979389
vt 0.029028 0.976441
vt 0.024700 0.977915
vt 0.020379 0.979387
vt 0.021185 0.970416
vt 0.016406 0.971558
vt 0.011634 0.972698
vt 0.011626 0.972700
vt 0.021159 0.970422
vt 0.016393 0.971561
vt 0.011634 0.972698
vt 0.011626 0.972700
vt 0.015438 0.963895
vt 0.010329 0.964673
vt 0.005229 0.965450
vt 0.005221 0.965451
vt 0.015397 0.963901
vt 0.010309 0.964676
vt 0.005229 0.965450
vt 0.011941 0.957033
vt 0.006627 0.957427
vt 0.001326 0.957795
vt 0.001313 0.957822
vt 0.011979 0.957228
vt 0.006646 0.957525
vt 0.001333 0.957821
vt 0.001313 0.957822
vt 0.010647 0.050000
vt 0.005324 0.050000
vt 0.000004 0.049974
vt -0.000000 0.050000
vt 0.010667 0.050195
vt 0.005333 0.050097
vt 0.000002 0.050000
vt 0.011845 0.042960
vt 0.006579 0.042569
vt 0.001322 0.042179
vt 0.001313 0.042178
vt 0.011881 0.042963
vt 0.006597 0.042571
vt 0.001322 0.042179
vt 0.001313 0.042178
vt 0.015374 0.036096
vt 0.010297 0.035322
vt 0.005229 0.034550
vt 0.005221 0.034549
vt 0.015397 0.036099
vt 0.010309 0.035324
vt 0.005229 0.034550
vt 0.021148 0.029575
vt 0.016387 0.028438
vt 0.011634 0.027302
vt 0.011626 0.027300
vt 0.021159 0.029577
vt 0.016393 0.028439
vt 0.011634 0.027302
vt 0.011626 0.027300
vt 0.029025 0.023558
vt 0.024699 0.022084
vt 0.020379 0.020613
vt 0.020372 0.020611
vt 0.029028 0.023559
vt 0.024700 0.022085
vt 0.020379 0.020613
vt 0.038813 0.018193
vt 0.035027 0.016419
vt 0.031248 0.014648
vt 0.031242 0.014645
vt 0.038808 0.018191
vt 0.035025 0.016418
vt 0.031248 0.014648
vt 0.050269 0.013613
vt 0.047119 0.011581
vt 0.043975 0.009552
vt 0.043970 0.009549
vt 0.050259 0.013607
vt 0.047114 0.011578
vt 0.043975 0.009552
vt 0.063112 0.009930
vt 0.060676 0.007690
vt 0.058245 0.005453
vt 0.058241 0.005450
vt 0.063098 0.009919
vt 0.060670 0.007684
vt 0.058245 0.005453
vt 0.058241 0.005450
vt 0.077024 0.007236
vt 0.075365 0.004842
vt 0.073708 0.002451
vt 0.073705 0.002447
vt 0.077012 0.007217
vt 0.075358 0.004832
vt 0.073708 0.002451
vt 0.091663 0.005597
vt 0.090822 0.003106
vt 0.090037 0.000622
vt 0.089980 0.000616
vt 0.091251 0.005615
vt 0.090616 0.003115
vt 0.089983 0.000625
vt 0.902719 0.022221
vt 0.893333 0.021875
vt 0.097281 0.022221
vt 0.911874 0.023252
vt 0.920573 0.024940
vt 0.928600 0.027246
vt 0.935760 0.030113
vt 0.941874 0.033469
vt 0.946794 0.037232
vt 0.950397 0.041309
vt 0.952595 0.045600
vt 0.953333 0.950000
vt 0.952595 0.954400
vt 0.950397 0.958691
vt 0.946794 0.962768
vt 0.941874 0.966531
vt 0.935760 0.969887
vt 0.928600 0.972754
vt 0.920573 0.975060
vt 0.911874 0.976748
vt 0.902719 0.977779
vt 0.106667 0.978125
vt 0.097281 0.977779
vt 0.088126 0.976748
vt 0.079427 0.975060
vt 0.071400 0.972754
vt 0.064240 0.969887
vt 0.058126 0.966531
vt 0.053206 0.962768
vt 0.049603 0.958691
vt 0.047405 0.954400
vt 0.046667 0.050000
vt 0.047405 0.045600
vt 0.049603 0.041309
vt 0.053206 0.037232
vt 0.058126 0.033469
vt 0.064240 0.030113
vt 0.071400 0.027246
vt 0.079427 0.024940
vt 0.088126 0.023252
s 0
usemtl Mat_Phone_Body
f 50/41/2 41/42/2 43/43/2 52/44/2
f 52/44/3 43/43/3 44/45/3 51/46/3
s 1
f 51/46/4 44/45/5 42/47/6 49/48/7
s 0
f 45/49/8 53/50/8 55/51/8 47/52/8
f 47/52/9 55/51/9 56/53/9 48/54/9
s 1
f 48/54/10 56/53/11 54/48/12 46/47/13
s 0
f 58/55/14 50/41/14 52/44/14 60/56/14
f 60/56/15 52/44/15 51/46/15 59/57/15
s 1
f 59/57/16 51/46/4 49/48/7 57/58/17
s 0
f 53/50/18 61/59/18 63/60/18 55/51/18
f 55/51/19 63/60/19 64/61/19 56/53/19
s 1
f 56/53/11 64/61/20 62/62/21 54/48/12
s 0
f 66/63/22 58/55/22 60/56/22 68/64/22
f 68/64/23 60/56/23 59/57/23 67/65/23
s 1
f 67/65/24 59/57/16 57/58/17 65/66/25
s 0
f 61/59/26 69/67/26 71/68/26 63/60/26
f 63/60/27 71/68/27 72/69/27 64/61/27
s 1
f 64/61/20 72/69/28 70/66/29 62/62/21
s 0
f 74/70/30 66/63/30 68/64/30 76/71/30
f 76/71/31 68/64/31 67/65/31 75/72/31
s 1
f 75/72/32 67/65/24 65/66/25 73/73/33
s 0
f 69/67/34 77/74/34 79/75/34 71/68/34
f 71/68/35 79/75/35 80/76/35 72/69/35
s 1
f 72/69/28 80/76/36 78/73/37 70/66/29
s 0
f 82/77/38 74/70/38 76/71/38 84/78/38
f 84/78/39 76/71/39 75/72/39 83/79/39
s 1
f 83/79/40 75/72/32 73/73/33 81/80/41
s 0
f 77/74/42 85/81/42 87/82/42 79/75/42
f 79/75/43 87/82/43 88/83/43 80/76/43
s 1
f 80/76/36 88/83/44 86/84/45 78/73/37
s 0
f 90/85/46 82/77/46 84/78/46 92/86/46
f 92/86/47 84/78/47 83/79/47 91/87/47
s 1
f 91/87/48 83/79/40 81/80/41 89/88/49
s 0
f 85/81/50 93/89/50 95/90/50 87/82/50
f 87/82/51 95/90/51 96/91/51 88/83/51
s 1
f 88/83/44 96/91/52 94/88/53 86/84/45
s 0
f 98/92/54 90/85/54 92/86/54 100/93/54
f 100/93/55 92/86/55 91/87/55 99/94/55
s 1
f 99/94/56 91/87/48 89/88/49 97/95/57
s 0
f 93/89/58 101/96/58 103/97/58 95/90/58
f 95/90/59 103/97/59 104/98/59 96/91/59
s 1
f 96/91/52 104/98/60 102/99/61 94/88/53
s 0
f 106/100/62 98/92/62 100/93/62 108/101/62
f 108/101/63 100/93/63 99/94/63 107/102/63
s 1
f 107/102/64 99/94/56 97/95/57 105/103/65
s 0
f 101/96/66 109/104/66 111/105/66 103/97/66
f 103/97/67 111/105/67 112/106/67 104/98/67
s 1
f 104/98/60 112/106/68 110/103/69 102/99/61
s 0
f 114/107/70 106/100/70 108/101/70 116/108/70
f 116/108/71 108/101/71 107/102/71 115/109/71
s 1
f 115/109/72 107/102/64 105/103/65 113/110/73
s 0
f 109/104/74 117/111/74 119/112/74 111/105/74
f 111/105/75 119/112/75 120/113/75 112/106/75
s 1
f 112/106/68 120/113/76 118/110/77 110/103/69
s 0
f 122/114/78 114/107/78 116/108/78 124/115/78
f 124/115/79 116/108/79 115/109/79 123/116/79
s 1
f 123/116/80 115/109/72 113/110/73 121/117/81
s 0
f 117/111/82 125/118/82 127/119/82 119/112/82
f 119/112/83 127/119/83 128/120/83 120/113/83
s 1
f 120/113/76 128/120/84 126/117/85 118/110/77
s 0
f 130/121/86 122/114/86 124/115/86 132/122/86
f 132/122/87 124/115/87 123/116/87 131/123/87
s 1
f 131/123/88 123/116/80 121/117/81 129/124/89
s 0
f 125/118/90 133/125/90 135/126/90 127/119/90
f 127/119/91 135/126/91 136/127/91 128/120/91
s 1
f 128/120/84 136/127/92 134/124/93 126/117/85
s 0
f 138/128/94 130/121/94 132/122/94 140/129/94
f 140/129/95 132/122/95 131/123/95 139/130/95
s 1
f 139/130/96 131/123/88 129/124/89 137/131/97
s 0
f 133/125/98 141/132/98 143/133/98 135/126/98
f 135/126/99 143/133/99 144/130/99 136/127/99
s 1
f 136/127/92 144/130/100 142/131/101 134/124/93
s 0
f 146/134/102 138/128/102 140/129/102 148/135/102
f 148/135/103 140/129/103 139/130/103 147/136/103
s 1
f 147/136/104 139/130/96 137/131/97 145/137/105
s 0
f 141/132/106 149/138/106 151/139/106 143/133/106
f 143/133/107 151/139/107 152/140/107 144/130/107
s 1
f 144/130/100 152/140/108 150/137/109 142/131/101
s 0
f 154/141/110 146/134/110 148/135/110 156/142/110
f 156/142/111 148/135/111 147/136/111 155/143/111
s 1
f 155/143/112 147/136/104 145/137/105 153/144/113
s 0
f 149/138/114 157/145/114 159/146/114 151/139/114
f 151/139/115 159/146/115 160/143/115 152/140/115
s 1
f 152/140/108 160/143/116 158/144/117 150/137/109
s 0
f 162/147/118 154/141/118 156/142/118 164/148/118
f 164/148/119 156/142/119 155/143/119 163/149/119
s 1
f 163/149/120 155/143/112 153/144/113 161/150/121
s 0
f 157/145/122 165/151/122 167/152/122 159/146/122
f 159/146/123 167/152/123 168/153/123 160/143/123
s 1
f 160/143/116 168/153/124 166/150/125 158/144/117
s 0
f 170/154/126 162/147/126 164/148/126 172/155/126
f 172/155/127 164/148/127 163/149/127 171/156/127
s 1
f 171/156/128 163/149/120 161/150/121 169/157/129
s 0
f 165/151/130 173/158/130 175/159/130 167/152/130
f 167/152/131 175/159/131 176/156/131 168/153/131
s 1
f 168/153/124 176/156/132 174/157/133 166/150/125
s 0
f 178/160/134 170/154/134 172/155/134 180/161/134
f 180/161/135 172/155/135 171/156/135 179/162/135
s 1
f 179/162/136 171/156/128 169/157/129 177/163/137
s 0
f 173/158/138 181/164/138 183/165/138 175/159/138
f 175/159/139 183/165/139 184/166/139 176/156/139
s 1
f 176/156/132 184/166/140 182/163/141 174/157/133
s 0
f 186/167/142 178/160/142 180/161/142 188/168/142
f 188/168/143 180/161/143 179/162/143 187/169/143
s 1
f 187/169/144 179/162/136 177/163/137 185/170/145
s 0
f 181/164/146 189/171/146 191/172/146 183/165/146
f 183/165/147 191/172/147 192/173/147 184/166/147
s 1
f 184/166/140 192/173/148 190/174/149 182/163/141
s 0
f 194/175/150 186/167/150 188/168/150 196/176/150
f 196/176/151 188/168/151 187/169/151 195/177/151
s 1
f 195/177/152 187/169/144 185/170/145 193/178/153
s 0
f 189/171/154 197/179/154 199/180/154 191/172/154
f 191/172/155 199/180/155 200/181/155 192/173/155
s 1
f 192/173/148 200/181/156 198/178/157 190/174/149
s 0
f 202/182/158 194/175/158 196/176/158 204/183/158
f 204/183/159 196/176/159 195/177/159 203/184/159
s 1
f 203/184/160 195/177/152 193/178/153 201/185/161
s 0
f 197/179/162 205/186/162 207/187/162 199/180/162
f 199/180/163 207/187/163 208/188/163 200/181/163
s 1
f 200/181/156 208/188/164 206/185/165 198/178/157
s 0
f 210/189/166 202/182/166 204/183/166 212/190/166
f 212/190/167 204/183/167 203/184/167 211/191/167
s 1
f 211/191/168 203/184/160 201/185/161 209/192/169
s 0
f 205/186/170 213/193/170 215/194/170 207/187/170
f 207/187/171 215/194/171 216/195/171 208/188/171
s 1
f 208/188/164 216/195/172 214/196/173 206/185/165
s 0
f 218/197/174 210/189/174 212/190/174 220/198/174
f 220/198/175 212/190/175 211/191/175 219/199/175
s 1
f 219/199/176 211/191/168 209/192/169 217/200/177
s 0
f 213/193/178 221/201/178 223/202/178 215/194/178
f 215/194/179 223/202/179 224/203/179 216/195/179
s 1
f 216/195/172 224/203/180 222/200/181 214/196/173
s 0
f 226/204/182 218/197/182 220/198/182 228/205/182
f 228/205/183 220/198/183 219/199/183 227/206/183
s 1
f 227/206/184 219/199/176 217/200/177 225/207/185
s 0
f 221/201/186 229/208/186 231/209/186 223/202/186
f 223/202/187 231/209/187 232/210/187 224/203/187
s 1
f 224/203/180 232/210/188 230/207/189 222/200/181
s 0
f 234/211/190 226/204/190 228/205/190 236/212/190
f 236/212/191 228/205/191 227/206/191 235/213/191
s 1
f 235/213/192 227/206/184 225/207/185 233/214/193
s 0
f 229/208/194 237/215/194 239/216/194 231/209/194
f 231/209/195 239/216/195 240/217/195 232/210/195
s 1
f 232/210/188 240/217/196 238/218/197 230/207/189
s 0
f 242/219/198 234/211/198 236/212/198 244/220/198
f 244/220/199 236/212/199 235/213/199 243/221/199
s 1
f 243/221/200 235/213/192 233/214/193 241/222/201
s 0
f 237/215/202 245/223/202 247/224/202 239/216/202
f 239/216/203 247/224/203 248/225/203 240/217/203
s 1
f 240/217/196 248/225/204 246/222/205 238/218/197
s 0
f 250/226/206 242/219/206 244/220/206 252/227/206
f 252/227/207 244/220/207 243/221/207 251/228/207
s 1
f 251/228/208 243/221/200 241/222/201 249/229/209
s 0
f 245/223/210 253/230/210 255/231/210 247/224/210
f 247/224/211 255/231/211 256/232/211 248/225/211
s 1
f 248/225/204 256/232/212 254/229/213 246/222/205
s 0
f 258/233/214 250/226/214 252/227/214 260/234/214
f 260/234/215 252/227/215 251/228/215 259/235/215
s 1
f 259/235/216 251/228/208 249/229/209 257/236/217
s 0
f 253/230/218 261/237/218 263/238/218 255/231/218
f 255/231/219 263/238/219 264/239/219 256/232/219
s 1
f 256/232/212 264/239/220 262/240/221 254/229/213
s 0
f 266/241/222 258/233/222 260/234/222 268/242/222
f 268/242/223 260/234/223 259/235/223 267/243/223
s 1
f 267/243/224 259/235/216 257/236/217 265/244/225
s 0
f 261/237/226 269/245/226 271/246/226 263/238/226
f 263/238/227 271/246/227 272/247/227 264/239/227
s 1
f 264/239/220 272/247/228 270/244/229 262/240/221
s 0
f 274/248/230 266/241/230 268/242/230 276/249/230
f 276/249/231 268/242/231 267/243/231 275/250/231
s 1
f 275/250/232 267/243/224 265/244/225 273/251/233
s 0
f 269/245/234 277/252/234 279/253/234 271/246/234
f 271/246/235 279/253/235 280/254/235 272/247/235
s 1
f 272/247/228 280/254/236 278/255/237 270/244/229
s 0
f 282/256/238 274/248/238 276/249/238 284/257/238
f 284/257/239 276/249/239 275/250/239 283/258/239
s 1
f 283/258/240 275/250/232 273/251/233 281/259/241
s 0
f 277/252/242 285/260/242 287/261/242 279/253/242
f 279/253/243 287/261/243 288/262/243 280/254/243
s 1
f 280/254/236 288/262/244 286/259/245 278/255/237
s 0
f 290/263/246 282/256/246 284/257/246 292/264/246
f 292/264/247 284/257/247 283/258/247 291/265/247
s 1
f 291/265/248 283/258/240 281/259/241 289/266/249
s 0
f 285/260/250 293/267/250 295/268/250 287/261/250
f 287/261/251 295/268/251 296/269/251 288/262/251
s 1
f 288/262/244 296/269/252 294/270/253 286/259/245
s 0
f 298/271/254 290/263/254 292/264/254 300/272/254
f 300/272/255 292/264/255 291/265/255 299/273/255
s 1
f 299/273/256 291/265/248 289/266/249 297/274/257
s 0
f 293/267/258 301/275/258 303/276/258 295/268/258
f 295/268/259 303/276/259 304/277/259 296/269/259
s 1
f 296/269/252 304/277/260 302/274/261 294/270/253
s 0
f 306/278/262 298/271/262 300/272/262 308/279/262
f 308/279/263 300/272/263 299/273/263 307/280/263
s 1
f 307/280/264 299/273/256 297/274/257 305/281/265
s 0
f 301/275/266 309/282/266 311/283/266 303/276/266
f 303/276/267 311/283/267 312/284/267 304/277/267
s 1
f 304/277/260 312/284/268 310/285/269 302/274/261
s 0
f 314/286/270 306/278/270 308/279/270 316/287/270
f 316/287/271 308/279/271 307/280/271 315/288/271
s 1
f 315/288/272 307/280/264 305/281/265 313/289/273
s 0
f 309/282/274 317/290/274 319/291/274 311/283/274
f 311/283/275 319/291/275 320/292/275 312/284/275
s 1
f 312/284/268 320/292/276 318/289/277 310/285/269
s 0
f 322/293/278 314/286/278 316/287/278 324/294/278
f 324/294/279 316/287/279 315/288/279 323/295/279
s 1
f 323/295/280 315/288/272 313/289/273 321/296/281
s 0
f 317/290/282 325/297/282 327/298/282 319/291/282
f 319/291/283 327/298/283 328/299/283 320/292/283
s 1
f 320/292/276 328/299/284 326/296/285 318/289/277
s 0
f 330/300/286 322/293/286 324/294/286 332/301/286
f 332/301/287 324/294/287 323/295/287 331/302/287
s 1
f 331/302/288 323/295/280 321/296/281 329/303/289
s 0
f 325/297/290 333/304/290 335/305/290 327/298/290
f 327/298/291 335/305/291 336/306/291 328/299/291
s 1
f 328/299/284 336/306/292 334/303/293 326/296/285
s 0
f 338/307/294 330/300/294 332/301/294 340/308/294
f 340/308/295 332/301/295 331/302/295 339/309/295
s 1
f 339/309/296 331/302/288 329/303/289 337/310/297
s 0
f 333/304/298 341/311/298 343/312/298 335/305/298
f 335/305/299 343/312/299 344/313/299 336/306/299
s 1
f 336/306/292 344/313/300 342/314/301 334/303/293
s 0
f 346/315/302 338/307/302 340/308/302 348/316/302
f 348/316/303 340/308/303 339/309/303 347/317/303
s 1
f 347/317/304 339/309/296 337/310/297 345/318/305
s 0
f 341/311/306 349/319/306 351/320/306 343/312/306
f 343/312/307 351/320/307 352/321/307 344/313/307
s 1
f 344/313/300 352/321/308 350/318/309 342/314/301
s 0
f 354/322/310 346/315/310 348/316/310 356/323/310
f 356/323/311 348/316/311 347/317/311 355/324/311
s 1
f 355/324/312 347/317/304 345/318/305 353/325/313
s 0
f 349/319/314 357/326/314 359/327/314 351/320/314
f 351/320/315 359/327/315 360/328/315 352/321/315
s 1
f 352/321/308 360/328/316 358/325/317 350/318/309
s 0
f 41/42/318 354/322/318 356/323/318 43/43/318
f 43/43/319 356/323/319 355/324/319 44/45/319
s 1
f 44/45/5 355/324/312 353/325/313 42/47/6
s 0
f 357/326/320 45/49/320 47/52/320 359/327/320
f 359/327/321 47/52/321 48/54/321 360/328/321
s 1
f 360/328/316 48/54/10 46/47/13 358/325/317
s 0
f 41/42/1 50/41/1 2/329/1 1/330/1
s 1
f 42/47/6 46/47/13 54/48/12 49/48/7
f 353/325/313 358/325/317 46/47/13 42/47/6
s 0
f 354/322/1 41/42/1 1/330/1 40/331/1
f 45/49/322 357/326/322 349/319/322 341/311/322 333/304/322 325/297/322 317/290/322 309/282/322 301/275/322 293/267/322 285/260/322 277/252/322 269/245/322 261/237/322 253/230/322 245/223/322 237/215/322 229/208/322 221/201/322 213/193/322 205/186/322 197/179/322 189/171/322 181/164/322 173/158/322 165/151/322 157/145/322 149/138/322 141/132/322 133/125/322 125/118/322 117/111/322 109/104/322 101/96/322 93/89/322 85/81/322 77/74/322 69/67/322 61/59/322 53/50/322
s 1
f 49/48/7 54/48/12 62/62/21 57/58/17
s 0
f 50/41/1 58/55/1 3/332/1 2/329/1
s 1
f 57/58/17 62/62/21 70/66/29 65/66/25
s 0
f 58/55/1 66/63/1 4/333/1 3/332/1
s 1
f 65/66/25 70/66/29 78/73/37 73/73/33
s 0
f 66/63/1 74/70/1 5/334/1 4/333/1
s 1
f 73/73/33 78/73/37 86/84/45 81/80/41
s 0
f 74/70/1 82/77/1 6/335/1 5/334/1
s 1
f 81/80/41 86/84/45 94/88/53 89/88/49
s 0
f 82/77/1 90/85/1 7/336/1 6/335/1
s 1
f 89/88/49 94/88/53 102/99/61 97/95/57
s 0
f 90/85/1 98/92/1 8/337/1 7/336/1
s 1
f 97/95/57 102/99/61 110/103/69 105/103/65
s 0
f 98/92/1 106/100/1 9/338/1 8/337/1
s 1
f 105/103/65 110/103/69 118/110/77 113/110/73
s 0
f 106/100/1 114/107/1 10/339/1 9/338/1
s 1
f 113/110/73 118/110/77 126/117/85 121/117/81
s 0
f 114/107/1 122/114/1 11/340/1 10/339/1
s 1
f 121/117/81 126/117/85 134/124/93 129/124/89
s 0
f 122/114/1 130/121/1 12/341/1 11/340/1
s 1
f 129/124/89 134/124/93 142/131/101 137/131/97
s 0
f 130/121/1 138/128/1 13/342/1 12/341/1
s 1
f 137/131/97 142/131/101 150/137/109 145/137/105
s 0
f 138/128/1 146/134/1 14/343/1 13/342/1
s 1
f 145/137/105 150/137/109 158/144/117 153/144/113
s 0
f 146/134/1 154/141/1 15/344/1 14/343/1
s 1
f 153/144/113 158/144/117 166/150/125 161/150/121
s 0
f 154/141/1 162/147/1 16/345/1 15/344/1
s 1
f 161/150/121 166/150/125 174/157/133 169/157/129
s 0
f 162/147/1 170/154/1 17/346/1 16/345/1
s 1
f 169/157/129 174/157/133 182/163/141 177/163/137
s 0
f 170/154/1 178/160/1 18/347/1 17/346/1
s 1
f 177/163/137 182/163/141 190/174/149 185/170/145
s 0
f 178/160/1 186/167/1 19/348/1 18/347/1
s 1
f 185/170/145 190/174/149 198/178/157 193/178/153
s 0
f 186/167/1 194/175/1 20/349/1 19/348/1
s 1
f 193/178/153 198/178/157 206/185/165 201/185/161
s 0
f 194/175/1 202/182/1 21/350/1 20/349/1
s 1
f 201/185/161 206/185/165 214/196/173 209/192/169
s 0
f 202/182/1 210/189/1 22/351/1 21/350/1
s 1
f 209/192/169 214/196/173 222/200/181 217/200/177
s 0
f 210/189/1 218/197/1 23/352/1 22/351/1
s 1
f 217/200/177 222/200/181 230/207/189 225/207/185
s 0
f 218/197/1 226/204/1 24/353/1 23/352/1
s 1
f 225/207/185 230/207/189 238/218/197 233/214/193
s 0
f 226/204/1 234/211/1 25/354/1 24/353/1
s 1
f 233/214/193 238/218/197 246/222/205 241/222/201
s 0
f 234/211/1 242/219/1 26/355/1 25/354/1
s 1
f 241/222/201 246/222/205 254/229/213 249/229/209
s 0
f 242/219/1 250/226/1 27/356/1 26/355/1
s 1
f 249/229/209 254/229/213 262/240/221 257/236/217
s 0
f 250/226/1 258/233/1 28/357/1 27/356/1
s 1
f 257/236/217 262/240/221 270/244/229 265/244/225
s 0
f 258/233/1 266/241/1 29/358/1 28/357/1
s 1
f 265/244/225 270/244/229 278/255/237 273/251/233
s 0
f 266/241/1 274/248/1 30/359/1 29/358/1
s 1
f 273/251/233 278/255/237 286/259/245 281/259/241
s 0
f 274/248/1 282/256/1 31/360/1 30/359/1
s 1
f 281/259/241 286/259/245 294/270/253 289/266/249
s 0
f 282/256/1 290/263/1 32/361/1 31/360/1
s 1
f 289/266/249 294/270/253 302/274/261 297/274/257
s 0
f 290/263/1 298/271/1 33/362/1 32/361/1
s 1
f 297/274/257 302/274/261 310/285/269 305/281/265
s 0
f 298/271/1 306/278/1 34/363/1 33/362/1
s 1
f 305/281/265 310/285/269 318/289/277 313/289/273
s 0
f 306/278/1 314/286/1 35/364/1 34/363/1
s 1
f 313/289/273 318/289/277 326/296/285 321/296/281
s 0
f 314/286/1 322/293/1 36/365/1 35/364/1
s 1
f 321/296/281 326/296/285 334/303/293 329/303/289
s 0
f 322/293/1 330/300/1 37/366/1 36/365/1
s 1
f 329/303/289 334/303/293 342/314/301 337/310/297
s 0
f 330/300/1 338/307/1 38/367/1 37/366/1
s 1
f 337/310/297 342/314/301 350/318/309 345/318/305
s 0
f 338/307/1 346/315/1 39/368/1 38/367/1
s 1
f 345/318/305 350/318/309 358/325/317 353/325/313
s 0
f 346/315/1 354/322/1 40/331/1 39/368/1
usemtl Mat_Phone_Screen
f 1/1/1 2/2/1 3/3/1 4/4/1 5/5/1 6/6/1 7/7/1 8/8/1 9/9/1 10/10/1 11/11/1 12/12/1 13/13/1 14/14/1 15/15/1 16/16/1 17/17/1 18/18/1 19/19/1 20/20/1 21/21/1 22/22/1 23/23/1 24/24/1 25/25/1 26/26/1 27/27/1 28/28/1 29/29/1 30/30/1 31/31/1 32/32/1 33/33/1 34/34/1 35/35/1 36/36/1 37/37/1 38/38/1 39/39/1 40/40/1
o DeskStand
v -0.044000 0.000553 0.041447
v -0.043447 0.000000 0.041447
v -0.043447 0.000553 0.042000
v -0.043838 0.000162 0.041447
v -0.043766 0.000234 0.041766
v -0.043447 0.000162 0.041838
v -0.043838 0.000553 0.041838
v 0.043447 0.000000 0.041447
v 0.044000 0.000553 0.041447
v 0.043447 0.000553 0.042000
v 0.043838 0.000162 0.041447
v 0.043766 0.000234 0.041766
v 0.043838 0.000553 0.041838
v 0.043447 0.000162 0.041838
v -0.044000 0.016771 0.041447
v -0.043447 0.016447 0.042000
v -0.043447 0.017391 0.041609
v -0.043838 0.016609 0.041838
v -0.043766 0.016924 0.041817
v -0.043447 0.016953 0.041885
v -0.043838 0.017162 0.041609
v 0.044000 0.016771 0.041447
v 0.043447 0.017391 0.041609
v 0.043447 0.016447 0.042000
v 0.043838 0.017162 0.041609
v 0.043766 0.016924 0.041817
v 0.043447 0.016953 0.041885
v 0.043838 0.016609 0.041838
v -0.044000 0.019447 0.038771
v -0.043447 0.019609 0.039391
v -0.043447 0.020000 0.038447
v -0.043838 0.019609 0.039162
v -0.043766 0.019817 0.038924
v -0.043447 0.019885 0.038953
v -0.043838 0.019838 0.038609
v 0.044000 0.019447 0.038771
v 0.043447 0.020000 0.038447
v 0.043447 0.019609 0.039391
v 0.043838 0.019838 0.038609
v 0.043766 0.019817 0.038924
v 0.043447 0.019885 0.038953
v 0.043838 0.019609 0.039162
v -0.044000 0.019447 0.026553
v -0.043447 0.020000 0.026553
v -0.043447 0.019447 0.026000
v -0.043838 0.019838 0.026553
v -0.043766 0.019766 0.026234
v -0.043447 0.019838 0.026162
v -0.043838 0.019447 0.026162
v 0.044000 0.019447 0.026553
v 0.043447 0.019447 0.026000
v 0.043447 0.020000 0.026553
v 0.043838 0.019447 0.026162
v 0.043766 0.019766 0.026234
v 0.043447 0.019838 0.026162
v 0.043838 0.019838 0.026553
v -0.044000 0.010833 0.026553
v -0.043447 0.011000 0.026000
v -0.043838 0.010951 0.026162
v 0.044000 0.010833 0.026553
v 0.043447 0.011000 0.026000
v 0.043838 0.010951 0.026162
v -0.044000 0.007447 0.024296
v -0.043447 0.008460 0.024307
v -0.043447 0.008000 0.023447
v -0.043838 0.008017 0.024206
v -0.043766 0.007994 0.024003
v -0.043447 0.008135 0.023928
v -0.043838 0.007838 0.023871
v 0.044000 0.007447 0.024296
v 0.043447 0.008000 0.023447
v 0.043447 0.008460 0.024307
v 0.043838 0.007838 0.023871
v 0.043766 0.007994 0.024003
v 0.043447 0.008135 0.023928
v 0.043838 0.008017 0.024206
v -0.044000 0.007447 0.022470
v -0.043447 0.008000 0.023447
v -0.043447 0.008534 0.022751
v -0.043838 0.007838 0.022958
v -0.043766 0.008002 0.022896
v -0.043447 0.008156 0.023014
v -0.043838 0.008020 0.022721
v 0.044000 0.007447 0.022470
v 0.043447 0.008534 0.022751
v 0.043447 0.008000 0.023447
v 0.043838 0.008020 0.022721
v 0.043766 0.008002 0.022896
v 0.043447 0.008156 0.023014
v 0.043838 0.007838 0.022958
v -0.044000 0.064447 0.007197
v -0.043447 0.064466 0.007764
v -0.043447 0.065000 0.007068
v -0.043838 0.064457 0.007595
v -0.043766 0.064770 0.007445
v -0.043447 0.064847 0.007504
v -0.043838 0.064834 0.007103
v 0.044000 0.064447 0.007197
v 0.043447 0.065000 0.007068
v 0.043447 0.064466 0.007764
v 0.043838 0.064834 0.007103
v 0.043766 0.064770 0.007445
v 0.043447 0.064847 0.007504
v 0.043838 0.064457 0.007595
v -0.044000 0.064447 0.000851
v -0.043447 0.065000 0.001174
v -0.043447 0.064608 0.000232
v -0.043838 0.064805 0.001093
v -0.043766 0.064800 0.000704
v -0.043447 0.064918 0.000655
v -0.043838 0.064527 0.000427
v 0.044000 0.064447 0.000851
v 0.043447 0.064608 0.000232
v 0.043447 0.065000 0.001174
v 0.043838 0.064527 0.000427
v 0.043766 0.064800 0.000704
v 0.043447 0.064918 0.000655
v 0.043838 0.064805 0.001093
v -0.044000 0.015690 -0.047528
v -0.043447 0.016000 -0.048000
v -0.043838 0.015909 -0.047862
v 0.044000 0.015690 -0.047528
v 0.043447 0.016000 -0.048000
v 0.043838 0.015909 -0.047862
v -0.044000 0.005894 -0.051447
v -0.043447 0.006000 -0.052000
v -0.043838 0.005969 -0.051838
v 0.044000 0.005894 -0.051447
v 0.043447 0.006000 -0.052000
v 0.043838 0.005969 -0.051838
v -0.044000 0.000553 -0.051447
v -0.043447 0.000553 -0.052000
v -0.043447 0.000000 -0.051447
v -0.043838 0.000553 -0.051838
v -0.043766 0.000234 -0.051766
v -0.043447 0.000162 -0.051838
v -0.043838 0.000162 -0.051447
v 0.044000 0.000553 -0.051447
v 0.043447 0.000000 -0.051447
v 0.043447 0.000553 -0.052000
v 0.043838 0.000162 -0.051447
v 0.043766 0.000234 -0.051766
v 0.043447 0.000162 -0.051838
v 0.043838 0.000553 -0.051838
vn -0.8881 -0.3251 0.3251
vn -0.3251 -0.8881 0.3251
vn -0.3251 -0.3251 0.8881
vn 0.3251 -0.8881 0.3251
vn 0.8881 -0.3251 0.3251
vn 0.3251 -0.3251 0.8881
vn -0.8639 0.1928 0.4654
vn -0.2724 0.1795 0.9453
vn -0.2724 0.5415 0.7954
vn 0.8639 0.1928 0.4654
vn 0.2724 0.5415 0.7954
vn 0.2724 0.1795 0.9453
vn -0.8639 0.4654 0.1927
vn -0.2724 0.7954 0.5415
vn -0.2724 0.9453 0.1795
vn 0.8639 0.4654 0.1928
vn 0.2724 0.9453 0.1795
vn 0.2724 0.7954 0.5415
vn -0.8881 0.3251 -0.3251
vn -0.3251 0.8881 -0.3251
vn -0.3251 0.3251 -0.8881
vn 0.8881 0.3251 -0.3251
vn 0.3251 0.3251 -0.8881
vn 0.3251 0.8881 -0.3251
vn -0.9357 0.3110 -0.1665
vn -0.5474 0.6861 -0.4792
vn -0.5474 0.7793 -0.3051
vn 0.9357 0.3110 -0.1665
vn 0.5474 0.7793 -0.3051
vn 0.5474 0.6861 -0.4792
vn -0.9485 0.2513 0.1929
vn -0.6192 0.6972 0.3613
vn -0.6192 0.5295 0.5799
vn 0.9485 0.2513 0.1928
vn 0.6192 0.5295 0.5799
vn 0.6192 0.6972 0.3613
vn -0.8674 0.3948 0.3029
vn -0.3194 0.5058 0.8013
vn -0.3194 0.9050 0.2812
vn 0.8674 0.3948 0.3029
vn 0.3194 0.9049 0.2812
vn 0.3194 0.5058 0.8013
vn -0.8534 0.4813 -0.2004
vn -0.3964 0.9105 -0.1179
vn -0.3964 0.7250 -0.5633
vn 0.8534 0.4812 -0.2004
vn 0.3963 0.7250 -0.5633
vn 0.3964 0.9105 -0.1179
vn -0.8881 -0.3251 -0.3251
vn -0.3251 -0.3251 -0.8881
vn -0.3251 -0.8881 -0.3251
vn 0.8881 -0.3251 -0.3251
vn 0.3251 -0.8881 -0.3251
vn 0.3251 -0.3251 -0.8881
vn -0.9239 -0.0000 0.3827
vn -0.3827 -0.0000 0.9239
vn -0.0000 -0.9239 0.3827
vn -0.0000 -0.3827 0.9239
vn 0.9239 -0.0000 0.3827
vn 0.3827 -0.0000 0.9239
vn -0.0000 0.5334 0.8459
vn -0.0000 0.2209 0.9753
vn -0.9239 0.2706 0.2706
vn -0.3827 0.6533 0.6533
vn 0.9239 0.2706 0.2706
vn 0.3827 0.6533 0.6533
vn -0.0000 0.9753 0.2209
vn -0.0000 0.8459 0.5334
vn -0.9239 0.3827 -0.0000
vn -0.3827 0.9239 -0.0000
vn 0.9239 0.3827 -0.0000
vn 0.3827 0.9239 -0.0000
vn -0.0000 0.3827 -0.9239
vn -0.0000 0.9239 -0.3827
vn -0.9239 -0.0000 -0.3827
vn -0.3827 -0.0000 -0.9239
vn 0.9239 -0.0000 -0.3827
vn 0.3827 -0.0000 -0.9239
vn -0.9239 0.2123 -0.3184
vn -0.3827 0.5125 -0.7687
vn 0.9239 0.2123 -0.3184
vn 0.3827 0.5125 -0.7687
vn -0.0000 0.9629 -0.2699
vn -0.0000 0.7587 -0.6515
vn -0.0000 0.5717 0.8205
vn -0.0000 0.9405 0.3399
vn -0.9232 0.0995 0.3712
vn -0.3866 0.2387 0.8908
vn 0.9232 0.0995 0.3712
vn 0.3866 0.2387 0.8908
vn -0.0000 0.9439 0.3303
vn -0.0000 0.5633 0.8262
vn -0.9170 0.3989 -0.0009
vn -0.4191 0.9079 -0.0022
vn 0.9170 0.3989 -0.0009
vn 0.4191 0.9079 -0.0022
vn -0.0000 0.8062 -0.5916
vn -0.0000 0.9878 -0.1556
vn -0.9178 0.2798 -0.2818
vn -0.4154 0.6409 -0.6455
vn 0.9178 0.2797 -0.2818
vn 0.4154 0.6409 -0.6456
vn -0.9239 0.1421 -0.3553
vn -0.3827 0.3431 -0.8578
vn 0.9239 0.1421 -0.3553
vn 0.3827 0.3431 -0.8578
vn -0.0000 -0.9239 -0.3827
vn -0.0000 -0.3827 -0.9239
vn -0.9239 -0.3827 -0.0000
vn -0.3827 -0.9239 -0.0000
vn 0.9239 -0.3827 -0.0000
vn 0.3827 -0.9239 -0.0000
vn -1.0000 -0.0000 -0.0000
vn -0.0000 -0.0000 1.0000
vn -0.0000 -1.0000 -0.0000
vn 1.0000 -0.0000 -0.0000
vn -0.0000 0.7071 0.7071
vn -0.0000 1.0000 -0.0000
vn -0.0000 -0.0000 -1.0000
vn -0.0000 0.5547 -0.8321
vn -0.0000 0.2588 0.9659
vn -0.0000 0.7044 -0.7098
vn -0.0000 0.3714 -0.9285
vt 0.005882 0.008506
vt 0.005882 0.000000
vt 0.000829 0.001198
vt 0.000000 0.008506
vt 0.005882 0.000000
vt 0.000000 0.000000
vt 0.000000 0.008506
vt 0.005882 0.000000
vt 0.005882 0.000000
vt 0.000000 0.008506
vt 0.000000 0.008506
vt 0.005882 0.258015
vt 0.000000 0.255524
vt 0.000190 0.261425
vt 0.002941 0.265792
vt 0.000000 0.253032
vt 0.000000 0.261538
vt 0.004159 0.267553
vt 0.005882 0.258015
vt 0.002941 0.265792
vt 0.000190 0.261425
vt 0.004159 0.267553
vt 0.034351 0.299186
vt 0.028974 0.303439
vt 0.031993 0.307418
vt 0.036074 0.307692
vt 0.027756 0.301677
vt 0.031915 0.307692
vt 0.037797 0.307692
vt 0.034351 0.299186
vt 0.036074 0.307692
vt 0.027756 0.301677
vt 0.164331 0.299186
vt 0.164331 0.307692
vt 0.169384 0.306494
vt 0.170213 0.299186
vt 0.164331 0.307692
vt 0.170213 0.307692
vt 0.170213 0.299186
vt 0.169384 0.306494
vt 0.188341 0.114571
vt 0.190731 0.124722
vt 0.191489 0.123077
vt 0.192856 0.123077
vt 0.188227 0.130155
vt 0.191489 0.123077
vt 0.197371 0.123077
vt 0.188227 0.130155
vt 0.207767 0.114571
vt 0.202569 0.123077
vt 0.203249 0.123085
vt 0.203431 0.124033
vt 0.197371 0.123077
vt 0.203254 0.123077
vt 0.204776 0.131293
vt 0.207767 0.114571
vt 0.203431 0.124033
vt 0.203249 0.123085
vt 0.204776 0.131293
vt 0.203254 0.123077
vt 0.370247 0.991494
vt 0.364306 0.992299
vt 0.366197 0.999127
vt 0.371246 1.000000
vt 0.364211 0.991783
vt 0.365733 1.000000
vt 0.371615 1.000000
vt 0.370247 0.991494
vt 0.371246 1.000000
vt 0.366197 0.999127
vt 0.364306 0.992299
vt 0.437752 0.991493
vt 0.435177 1.000000
vt 0.440114 0.999697
vt 0.443740 0.994843
vt 0.434319 1.000000
vt 0.440201 1.000000
vt 0.444344 0.993962
vt 0.437752 0.991494
vt 0.443740 0.994843
vt 0.440114 0.999697
vt 0.434319 1.000000
vt 0.994118 0.008506
vt 1.000000 0.008506
vt 0.999171 0.001198
vt 0.994118 0.000000
vt 1.000000 0.008506
vt 1.000000 0.000000
vt 0.994118 0.000000
vt 0.994118 0.008506
vt 0.994118 0.000000
vt 1.000000 0.008506
vt 1.000000 0.008506
vt 0.164331 0.166655
vt 0.170213 0.169231
vt 0.164331 0.166655
vt 0.952429 0.241389
vt 0.957389 0.246098
vt 0.957447 0.246154
vt 0.957447 0.246154
vt 0.994118 0.090670
vt 0.999938 0.092291
vt 1.000000 0.092308
vt 0.994118 0.090670
vt 0.999938 0.092291
s 0
usemtl Mat_Stand_Matte
f 361/369/323 364/370/323 365/371/323 367/372/323
f 362/373/324 366/374/324 365/371/324 364/370/324
f 363/375/325 367/372/325 365/371/325 366/374/325
f 368/376/326 371/377/326 372/371/326 374/374/326
f 369/369/327 373/378/327 372/371/327 371/377/327
f 370/379/328 374/374/328 372/371/328 373/378/328
f 375/380/329 378/381/329 379/382/329 381/383/329
f 376/384/330 380/385/330 379/382/330 378/381/330
f 377/386/331 381/383/331 379/382/331 380/385/331
f 382/387/332 385/388/332 386/389/332 388/381/332
f 383/390/333 387/385/333 386/389/333 385/388/333
f 384/384/334 388/381/334 386/389/334 387/385/334
f 389/391/335 392/392/335 393/393/335 395/394/335
f 390/395/336 394/396/336 393/393/336 392/392/336
f 391/397/337 395/394/337 393/393/337 394/396/337
f 396/398/338 399/399/338 400/393/338 402/392/338
f 397/397/339 401/396/339 400/393/339 399/399/339
f 398/400/340 402/392/340 400/393/340 401/396/340
f 403/401/341 406/402/341 407/403/341 409/404/341
f 404/405/342 408/406/342 407/403/342 406/402/342
f 405/407/343 409/404/343 407/403/343 408/406/343
f 410/401/344 413/404/344 414/408/344 416/405/344
f 411/407/345 415/406/345 414/408/345 413/404/345
f 412/405/346 416/405/346 414/408/346 415/406/346
f 423/409/347 426/410/347 427/411/347 429/412/347
f 424/413/348 428/414/348 427/411/348 426/410/348
f 425/415/349 429/412/349 427/411/349 428/414/349
f 430/409/350 433/412/350 434/411/350 436/410/350
f 431/415/351 435/414/351 434/411/351 433/412/351
f 432/416/352 436/410/352 434/411/352 435/414/352
f 437/417/353 440/418/353 441/419/353 443/420/353
f 438/421/354 442/422/354 441/419/354 440/418/354
f 439/423/355 443/420/355 441/419/355 442/422/355
f 444/424/356 447/425/356 448/426/356 450/418/356
f 445/427/357 449/428/357 448/426/357 447/425/357
f 446/421/358 450/418/358 448/426/358 449/428/358
f 451/429/359 454/430/359 455/431/359 457/432/359
f 452/433/360 456/434/360 455/431/360 454/430/360
f 453/435/361 457/432/361 455/431/361 456/434/361
f 458/436/362 461/437/362 462/438/362 464/439/362
f 459/435/363 463/434/363 462/438/363 461/437/363
f 460/433/364 464/439/364 462/438/364 463/434/364
f 465/440/365 468/441/365 469/442/365 471/443/365
f 466/444/366 470/445/366 469/442/366 468/441/366
f 467/446/367 471/443/367 469/442/367 470/445/367
f 472/447/368 475/448/368 476/449/368 478/441/368
f 473/446/369 477/445/369 476/449/369 475/448/369
f 474/450/370 478/441/370 476/449/370 477/445/370
f 491/451/371 494/452/371 495/453/371 497/454/371
f 492/455/372 496/456/372 495/453/372 494/452/372
f 493/457/373 497/454/373 495/453/373 496/456/373
f 498/458/374 501/459/374 502/453/374 504/460/374
f 499/459/375 503/456/375 502/453/375 501/459/375
f 500/461/376 504/460/376 502/453/376 503/456/376
f 375/380/377 361/369/377 367/372/377 378/381/377
f 378/381/378 367/372/378 363/375/378 376/384/378
f 362/373/379 368/376/379 374/374/379 366/374/379
f 366/374/380 374/374/380 370/379/380 363/375/380
f 369/369/381 382/387/381 388/381/381 373/378/381
f 373/378/382 388/381/382 384/384/382 370/379/382
f 383/390/383 377/386/383 380/385/383 387/385/383
f 387/385/384 380/385/384 376/384/384 384/384/384
f 389/391/385 375/380/385 381/383/385 392/392/385
f 392/392/386 381/383/386 377/386/386 390/395/386
f 382/387/387 396/398/387 402/392/387 385/388/387
f 385/388/388 402/392/388 398/400/388 383/390/388
f 397/397/389 391/397/389 394/396/389 401/396/389
f 401/396/390 394/396/390 390/395/390 398/400/390
f 403/401/391 389/391/391 395/394/391 406/402/391
f 406/402/392 395/394/392 391/397/392 404/405/392
f 396/398/393 410/401/393 416/405/393 399/399/393
f 399/399/394 416/405/394 412/405/394 397/397/394
f 411/407/395 405/407/395 408/406/395 415/406/395
f 415/406/396 408/406/396 404/405/396 412/405/396
f 417/462/397 403/401/397 409/404/397 419/463/397
f 419/463/398 409/404/398 405/407/398 418/463/398
f 410/401/399 420/464/399 422/463/399 413/404/399
f 413/404/400 422/463/400 421/463/400 411/407/400
f 423/409/401 417/462/401 419/463/401 426/410/401
f 426/410/402 419/463/402 418/463/402 424/413/402
f 420/464/403 430/409/403 436/410/403 422/463/403
f 422/463/404 436/410/404 432/416/404 421/463/404
f 431/415/405 425/415/405 428/414/405 435/414/405
f 435/414/406 428/414/406 424/413/406 432/416/406
f 437/417/391 423/409/391 429/412/391 440/418/391
f 440/418/392 429/412/392 425/415/392 438/421/392
f 430/409/393 444/424/393 450/418/393 433/412/393
f 433/412/394 450/418/394 446/421/394 431/415/394
f 445/427/407 439/423/407 442/422/407 449/428/407
f 449/428/408 442/422/408 438/421/408 446/421/408
f 451/429/409 437/417/409 443/420/409 454/430/409
f 454/430/410 443/420/410 439/423/410 452/433/410
f 444/424/411 458/436/411 464/439/411 447/425/411
f 447/425/412 464/439/412 460/433/412 445/427/412
f 459/435/413 453/435/413 456/434/413 463/434/413
f 463/434/414 456/434/414 452/433/414 460/433/414
f 465/440/415 451/429/415 457/432/415 468/441/415
f 468/441/416 457/432/416 453/435/416 466/444/416
f 458/436/417 472/447/417 478/441/417 461/437/417
f 461/437/418 478/441/418 474/450/418 459/435/418
f 473/446/419 467/446/419 470/445/419 477/445/419
f 477/445/420 470/445/420 466/444/420 474/450/420
f 479/465/421 465/440/421 471/443/421 481/466/421
f 481/466/422 471/443/422 467/446/422 480/467/422
f 472/447/423 482/465/423 484/466/423 475/448/423
f 475/448/424 484/466/424 483/468/424 473/446/424
f 485/469/425 479/465/425 481/466/425 487/470/425
f 487/470/426 481/466/426 480/467/426 486/471/426
f 482/465/427 488/472/427 490/473/427 484/466/427
f 484/466/428 490/473/428 489/471/428 483/468/428
f 491/451/397 485/469/397 487/470/397 494/452/397
f 494/452/398 487/470/398 486/471/398 492/455/398
f 488/472/399 498/458/399 504/460/399 490/473/399
f 490/473/400 504/460/400 500/461/400 489/471/400
f 499/459/429 493/457/429 496/456/429 503/456/429
f 503/456/430 496/456/430 492/455/430 500/461/430
f 361/369/431 491/451/431 497/454/431 364/370/431
f 364/370/432 497/454/432 493/457/432 362/373/432
f 498/458/433 369/369/433 371/377/433 501/459/433
f 501/459/434 371/377/434 368/376/434 499/459/434
f 361/369/435 375/380/435 389/391/435 403/401/435 417/462/435 423/409/435 437/417/435 451/429/435 465/440/435 479/465/435 485/469/435 491/451/435
f 363/375/436 370/379/436 384/384/436 376/384/436
f 493/457/437 499/459/437 368/376/437 362/373/437
f 498/458/438 488/472/438 482/465/438 472/447/438 458/436/438 444/424/438 430/409/438 420/464/438 410/401/438 396/398/438 382/387/438 369/369/438
f 377/386/439 383/390/439 398/400/439 390/395/439
f 391/397/440 397/397/440 412/405/440 404/405/440
f 405/407/441 411/407/441 421/463/441 418/463/441
f 418/463/442 421/463/442 432/416/442 424/413/442
f 425/415/440 431/415/440 446/421/440 438/421/440
f 439/423/443 445/427/443 460/433/443 452/433/443
f 453/435/440 459/435/440 474/450/440 466/444/440
f 467/446/444 473/446/444 483/468/444 480/467/444
f 480/467/445 483/468/445 489/471/445 486/471/445
f 486/471/441 489/471/441 500/461/441 492/455/441
